<svg width="21" height="21" viewBox="0 0 21 21" fill="none" xmlns="http://www.w3.org/2000/svg">
<path opacity="0.12" fill-rule="evenodd" clip-rule="evenodd" d="M9.07132 0.584865C9.42531 0.231339 9.89894 0.0233188 10.3988 0.00184476C10.8986 -0.0196293 11.3883 0.147003 11.7713 0.468865L11.8993 0.585865V0.585865C13.1158 1.80167 14.7655 2.48486 16.4853 2.48486V2.48486C16.9897 2.48496 17.4755 2.67564 17.8452 3.0187C18.215 3.36177 18.4415 3.83188 18.4793 4.33486L18.4853 4.48486V4.48486C18.4853 6.20468 19.1692 7.85477 20.3853 9.07086V9.07086C20.7391 9.4249 20.9473 9.89874 20.9688 10.3988C20.9903 10.8989 20.8235 11.3888 20.5013 11.7719L20.3843 11.8989V11.8989C19.1682 13.115 18.4843 14.765 18.4843 16.4849V16.4849C18.4845 16.9894 18.2939 17.4754 17.9508 17.8454C17.6077 18.2154 17.1375 18.442 16.6343 18.4799L16.4853 18.4849V18.4849C14.7661 18.4849 13.116 19.1692 11.9003 20.3849V20.3849C11.5463 20.7387 11.0725 20.9469 10.5724 20.9683C10.0723 20.9898 9.58239 20.823 9.19932 20.5009L9.07232 20.3849V20.3849C7.85577 19.1683 6.20578 18.4849 4.48532 18.4849V18.4849C3.98075 18.485 3.49476 18.2945 3.12477 17.9514C2.75479 17.6083 2.52817 17.138 2.49032 16.6349L2.48532 16.4849V16.4849C2.48532 14.765 1.80142 13.115 0.585322 11.8989V11.8989C0.231516 11.5448 0.0233195 11.071 0.0018434 10.5709C-0.0196327 10.0709 0.147173 9.58093 0.469322 9.19786L0.585322 9.07086V9.07086C1.80142 7.85477 2.48532 6.20468 2.48532 4.48486V4.48486C2.48541 3.98046 2.67609 3.49472 3.01916 3.12495C3.36222 2.75518 3.83234 2.5287 4.33532 2.49086L4.48532 2.48486V2.48486C6.20514 2.48486 7.85523 1.80096 9.07132 0.584865V0.584865Z" fill="#0B5145"/>
<path fill-rule="evenodd" clip-rule="evenodd" d="M12.7192 7.28071L8.4752 11.5247L6.7072 9.75671C6.51956 9.5692 6.26512 9.46392 5.99985 9.46401C5.73458 9.4641 5.48021 9.56957 5.2927 9.75721C5.10519 9.94485 4.99991 10.1993 5 10.4646C5.00009 10.7298 5.10556 10.9842 5.2932 11.1717L7.6972 13.5757C7.79935 13.6779 7.92064 13.759 8.05413 13.8143C8.18762 13.8696 8.33071 13.8981 8.4752 13.8981C8.6197 13.8981 8.76278 13.8696 8.89627 13.8143C9.02977 13.759 9.15105 13.6779 9.2532 13.5757L14.1332 8.69471C14.3154 8.50611 14.4162 8.25351 14.4139 7.99131C14.4116 7.72911 14.3064 7.4783 14.121 7.29289C13.9356 7.10748 13.6848 7.00232 13.4226 7.00004C13.1604 6.99776 12.9078 7.09855 12.7192 7.28071Z" fill="#0B5145"/>
</svg>
