<svg width="152" height="93" viewBox="0 0 152 93" fill="none" xmlns="http://www.w3.org/2000/svg">
<path d="M67.3407 9.72045C66.9101 11.4957 66.8111 13.3369 67.0487 15.149C67.3158 16.9911 68.0195 18.7401 69.0997 20.2463C69.5353 20.8685 69.9901 21.4687 70.4063 22.1104C71.0011 23.0186 71.5633 23.944 72.0954 24.8925C72.9367 26.3708 73.7125 27.8849 74.4227 29.4349C74.623 29.8725 74.8172 30.315 75.0054 30.7587C75.0271 30.81 75.0489 30.8626 75.0718 30.9139C75.1502 31.1022 75.0718 30.9139 75.0585 30.8834C75.1092 31.0056 75.1562 31.1205 75.2045 31.2391C75.3091 31.4982 75.4112 31.7586 75.5109 32.0202C75.8504 32.9166 76.1496 33.8293 76.4086 34.7583C76.8351 36.3171 77.162 37.9021 77.387 39.5035C77.4099 39.6673 77.4341 39.8311 77.4558 39.9925C77.4678 40.0768 77.4787 40.1612 77.4908 40.2467L77.4739 40.1172L77.4956 40.2822C77.5354 40.5866 77.5752 40.8934 77.6162 41.1965C77.6967 41.8485 77.7622 42.5041 77.8129 43.1633C77.9365 44.7397 77.9812 46.3215 77.9468 47.9025C77.9267 48.7989 77.8817 49.6953 77.8117 50.5917C77.7739 51.0806 77.7284 51.5696 77.6754 52.0585C77.6512 52.281 77.6247 52.5047 77.5981 52.7272C77.5825 52.8494 77.5656 52.9814 77.5499 53.1073C77.5885 52.8286 77.527 53.2858 77.5499 53.1073C77.5402 53.1794 77.5306 53.2503 77.5197 53.3212C77.4473 53.8322 77.3669 54.3411 77.2784 54.848C77.2097 55.1373 77.2492 55.4421 77.3894 55.7036C77.5356 55.953 77.7704 56.1363 78.0458 56.2158C78.5814 56.3381 79.292 56.0508 79.3982 55.4372C80.0443 51.7712 80.2759 48.0425 80.0883 44.3234C80.0171 42.9861 79.8784 41.6561 79.7059 40.3286C79.5032 38.7787 79.2752 37.2336 78.9277 35.7081C78.0771 31.9823 76.5304 28.446 74.7364 25.0942C73.8773 23.4573 72.9217 21.8743 71.8746 20.3539C71.4318 19.7231 70.9625 19.1107 70.5475 18.4592C70.3307 18.1193 70.1341 17.7666 69.9587 17.4031C69.9189 17.3175 69.8803 17.2307 69.8381 17.1451C69.756 16.9655 69.8514 17.1965 69.8634 17.2099C69.8329 17.1553 69.8093 17.097 69.7934 17.0363C69.7005 16.7919 69.6161 16.5474 69.5413 16.3029C69.3955 15.8224 69.2826 15.3323 69.2035 14.8361C69.195 14.7811 69.1878 14.7273 69.1793 14.6723C69.1528 14.5134 69.2023 14.8838 69.1793 14.7248C69.1661 14.6026 69.1516 14.4804 69.1407 14.3581C69.119 14.1218 69.1045 13.8855 69.0973 13.6492C69.0832 13.2007 69.0933 12.7519 69.1275 12.3045C69.1407 12.1175 69.1588 11.9305 69.1805 11.7435C69.1805 11.7129 69.2179 11.4843 69.1866 11.6885C69.1588 11.8682 69.1866 11.7154 69.1866 11.6701C69.2023 11.5613 69.2192 11.4526 69.236 11.345C69.294 10.9954 69.3651 10.6482 69.446 10.3023C69.5775 9.73757 69.271 9.07015 68.6774 8.93325C68.114 8.80245 67.471 9.10438 67.325 9.71067L67.3407 9.72045Z" fill="#0B5145"/>
<path d="M77.0626 8.36487C77.3539 9.23992 77.5659 10.1401 77.696 11.0541L77.6574 10.7583C77.7871 11.6838 77.7944 12.6227 77.6791 13.5502L77.7177 13.2544C77.6185 14.0002 77.4221 14.7293 77.1337 15.4228L77.2447 15.1564C76.6837 16.4851 75.7391 17.551 74.9741 18.7526C73.9477 20.4051 73.3536 22.2952 73.2477 24.2447C73.1977 25.2082 73.2482 26.1743 73.3985 27.1271C73.4347 27.3838 73.6941 27.6686 73.904 27.792C74.0286 27.8668 74.1666 27.9158 74.3101 27.9363C74.4535 27.9568 74.5995 27.9484 74.7397 27.9115C74.8799 27.8745 75.0114 27.8099 75.1268 27.7212C75.2422 27.6325 75.3392 27.5216 75.4121 27.3948L75.5231 27.1295C75.5761 26.9355 75.5761 26.7306 75.5231 26.5367C75.5159 26.4878 75.5098 26.4376 75.5026 26.3887L75.5424 26.6846C75.3985 25.6306 75.392 24.5621 75.5231 23.5064L75.4833 23.8022C75.6033 22.8822 75.8422 21.9821 76.1939 21.1252L76.0829 21.3917C76.4593 20.5401 76.93 19.7347 77.486 18.991C77.994 18.2856 78.5139 17.5877 78.9073 16.8078C79.6935 15.2289 80.0532 13.4673 79.9497 11.7019C79.8684 10.3631 79.612 9.0412 79.1872 7.7708C79.1055 7.49347 78.9255 7.25659 78.6816 7.10583C78.4258 6.95682 78.1222 6.91639 77.8371 6.99337C77.2942 7.17062 76.8719 7.7708 77.0698 8.36365L77.0626 8.36487Z" fill="#0B5145"/>
<path d="M86.4984 10.0163C86.5774 11.1576 86.5446 12.3041 86.4007 13.4389L86.4393 13.1419C86.2773 14.3802 85.9561 15.5916 85.4838 16.7454L85.5947 16.4802C85.1847 17.47 84.6524 18.4032 84.0106 19.2574L84.1832 19.0313C83.3724 20.0935 82.3879 20.9871 81.4179 21.8867C80.361 22.872 79.379 23.9318 78.6153 25.1725C77.3798 27.1808 76.7899 29.5143 76.6523 31.8625C76.5389 33.7865 76.7488 35.7252 77.1072 37.6138C77.1651 37.8242 77.2827 38.0127 77.4455 38.1559C77.6083 38.2992 77.809 38.3908 78.0227 38.4194C78.2365 38.4481 78.4538 38.4125 78.6477 38.3171C78.8416 38.2216 79.0036 38.0706 79.1135 37.8827C79.2495 37.6198 79.2888 37.3166 79.2245 37.027C79.1264 36.5136 79.0428 35.9978 78.9736 35.4795L79.0122 35.7753C78.7738 34.0905 78.7559 32.3811 78.9591 30.6915L78.9193 30.9873C79.0677 29.8339 79.3655 28.7053 79.8049 27.6307L79.6951 27.8971C80.0753 26.9867 80.5692 26.1293 81.1646 25.3461L80.9932 25.571C82.2335 23.9538 83.9021 22.7595 85.2292 21.2291C86.9862 19.1838 88.1294 16.6721 88.5241 13.9902C88.7238 12.6758 88.7816 11.3434 88.6966 10.0163C88.6896 9.72244 88.5747 9.44178 88.3745 9.22908C88.1673 9.0219 87.8886 8.9048 87.5975 8.90271C87.0341 8.92838 86.4574 9.39166 86.4984 10.0163Z" fill="#0B5145"/>
<path d="M86.8625 53.3322L86.8505 53.3029L86.9615 53.5694C86.1471 51.6136 85.5776 49.5282 85.1324 47.4575C84.9088 46.416 84.7263 45.3664 84.5847 44.3087L84.6245 44.6045C84.3189 42.3722 84.2425 40.1138 84.3965 37.8656C84.4351 37.3473 84.4886 36.8298 84.5569 36.3131L84.5171 36.6102C84.7192 35.0573 85.0737 33.5287 85.5752 32.0471C85.724 31.6168 85.8849 31.191 86.0578 30.7697L85.9468 31.0362C86.6016 29.4623 87.4531 27.9801 88.4804 26.6258L88.3091 26.852C89.3762 25.4662 90.6122 24.223 91.9876 23.1519L91.7657 23.3254C93.5432 21.96 95.4862 20.8311 97.5471 19.9664L97.2853 20.0788C97.5169 19.9798 97.7498 19.8845 97.9838 19.7903C98.2559 19.7037 98.4888 19.5223 98.6414 19.2782C98.7873 19.0186 98.8272 18.7115 98.7524 18.4225C98.6745 18.1432 98.4935 17.9051 98.2468 17.7575C98.0056 17.6255 97.6689 17.5363 97.4023 17.6451C94.1702 18.9371 91.1214 20.7084 88.6155 23.1727C86.5588 25.195 84.945 27.633 83.8789 30.3284C82.9041 32.7181 82.3925 35.2778 82.1995 37.8509C81.9582 41.0987 82.267 44.3832 82.9113 47.5687C83.3601 49.7873 83.9609 52.0084 84.8163 54.1048C84.8646 54.227 84.9141 54.3419 84.9635 54.4605C85.0649 54.6988 85.3858 54.9066 85.6211 54.9714C85.7602 55.0106 85.9057 55.0215 86.0491 55.0036C86.1924 54.9857 86.3309 54.9393 86.4565 54.8671C86.5822 54.7949 86.6925 54.6982 86.7812 54.5827C86.87 54.4672 86.9353 54.3351 86.9735 54.194C87.0338 53.9043 86.9947 53.6024 86.8625 53.3383V53.3322Z" fill="#0B5145"/>
<path d="M100.008 25.5233C99.9358 25.8273 99.8435 26.1262 99.7322 26.418C99.6678 26.5924 99.6003 26.766 99.5295 26.9388L99.6405 26.6723C99.2042 27.7197 98.6365 28.7057 97.9514 29.606L98.1228 29.3811C97.4845 30.216 96.7451 30.9663 95.9221 31.6143L96.1441 31.4408C95.2922 32.1043 94.3596 32.654 93.3692 33.0763L93.6322 32.9638C93.1496 33.1716 92.6429 33.3391 92.1495 33.531C91.2181 33.8928 90.2995 34.2877 89.3939 34.7155C88.3283 35.2103 87.2958 35.775 86.3029 36.406C85.2967 37.0551 84.2941 37.7946 83.5099 38.7139C82.7558 39.6001 82.1429 40.6819 82.1671 41.892C82.1766 42.0927 82.1975 42.2927 82.2298 42.491C82.2648 42.7465 82.5266 43.0325 82.7353 43.156C82.86 43.2299 82.9978 43.2782 83.1409 43.2981C83.284 43.3181 83.4296 43.3092 83.5693 43.2721C83.7091 43.235 83.8402 43.1703 83.9553 43.0818C84.0703 42.9933 84.167 42.8827 84.2398 42.7563L84.3508 42.491C84.4027 42.2969 84.4027 42.0923 84.3508 41.8981V41.8761L84.3906 42.172C84.3623 41.95 84.3623 41.7253 84.3906 41.5033L84.352 41.7991C84.3895 41.5367 84.4605 41.2803 84.5631 41.0364L84.4521 41.3029C84.6024 40.9565 84.7954 40.6308 85.0264 40.3335L84.8539 40.5584C85.3133 39.9769 85.8426 39.4558 86.4296 39.0072L86.2064 39.182C87.5624 38.1222 89.0923 37.2971 90.6426 36.5723C91.0238 36.3938 91.4079 36.2219 91.7948 36.0564L91.5318 36.1689C92.1591 35.9012 92.7925 35.6469 93.4344 35.4147C94.574 35.0177 95.6586 34.4742 96.6617 33.7975C97.9577 32.8981 99.0935 31.782 100.021 30.4971C100.682 29.5738 101.232 28.5732 101.658 27.5169C101.85 27.0719 102.006 26.6115 102.123 26.1406C102.123 26.1332 102.123 26.1271 102.123 26.121C102.194 25.8318 102.155 25.5262 102.012 25.2653C101.866 25.0162 101.631 24.8333 101.356 24.7544C100.798 24.6248 100.138 24.9243 100.004 25.5318L100.008 25.5233Z" fill="#0B5145"/>
<path d="M58.5273 19.2781C58.7179 19.5336 58.9049 19.7915 59.0919 20.0507C59.6549 20.8305 60.2127 21.6153 60.7653 22.405C61.6886 23.721 62.6003 25.0457 63.5004 26.3789C64.503 27.8604 65.4645 29.3725 66.5021 30.8283C67.156 31.7463 67.8461 32.6374 68.5314 33.531L68.7449 33.8109L68.5736 33.5848C69.3216 34.5627 70.0576 35.565 70.6343 36.6627C70.7951 36.9683 70.9423 37.2812 71.0758 37.6015L70.9649 37.335C71.3509 38.2811 71.6129 39.2744 71.7442 40.2895L71.7044 39.9937C71.9011 41.4837 71.8673 42.9995 71.7358 44.4944C71.6875 45.0323 71.6276 45.5689 71.556 46.1043L71.5958 45.8073C71.3075 47.9745 70.872 50.1186 70.3725 52.2455C70.2398 52.8114 70.5462 53.4789 71.1398 53.6158C71.7032 53.7453 72.3463 53.4434 72.4923 52.8371C73.0537 50.5016 73.4919 48.1375 73.8049 45.7547C74.0028 44.1571 74.115 42.5362 74.0028 40.9263C73.9316 39.6604 73.6859 38.4109 73.2728 37.214C72.8895 36.1691 72.3836 35.1747 71.766 34.2522C71.1169 33.2743 70.3857 32.3477 69.6715 31.4151L69.4013 31.0618L69.5738 31.2867C67.8739 29.0583 66.3754 26.6845 64.7973 24.3681C63.5547 22.5467 62.2987 20.7327 61.0066 18.9469C60.8148 18.6816 60.6229 18.4151 60.4263 18.1523C60.2453 17.9078 60.0643 17.7245 59.7687 17.6414C59.4836 17.5651 59.1802 17.6055 58.9242 17.7538C58.6771 17.9008 58.4958 18.1392 58.4187 18.4188C58.3572 18.6914 58.3547 19.0447 58.5297 19.2745L58.5273 19.2781Z" fill="#0B5145"/>
<path d="M52.6469 27.3948C52.8182 27.7427 53.0087 28.0807 53.2175 28.4069C53.7927 29.3293 54.4381 30.2047 55.1479 31.0252C56.1275 32.1565 57.2259 33.1762 58.4235 34.0665C59.8651 35.1391 61.4519 35.9954 63.1348 36.609C63.5764 36.772 64.024 36.9166 64.4776 37.0429C64.7189 37.109 64.9582 37.1701 65.1954 37.2263C65.4367 37.2813 65.678 37.3119 65.9193 37.3779C66.1024 37.4388 66.282 37.5098 66.4574 37.5906L66.7241 37.703L66.461 37.5906C67.5352 38.0401 68.57 38.5806 69.5545 39.2065C69.8693 39.4095 70.177 39.6246 70.4726 39.8556L70.2494 39.682C70.7262 40.0433 71.1559 40.4643 71.5282 40.935L71.3557 40.7101C71.5425 40.9535 71.6993 41.219 71.8226 41.5009L71.7116 41.2345C71.7981 41.4388 71.8577 41.6537 71.889 41.8738L71.8504 41.5779C71.8739 41.7642 71.8739 41.9527 71.8504 42.139L71.8902 41.8432L71.883 41.8921C71.8371 42.2001 71.8323 42.4715 71.9939 42.7478C72.0666 42.8741 72.1632 42.9847 72.2782 43.0732C72.3931 43.1617 72.5241 43.2264 72.6638 43.2635C72.8034 43.3006 72.9489 43.3095 73.0919 43.2896C73.2349 43.2697 73.3726 43.2214 73.4972 43.1475C73.7216 43.002 73.9617 42.7612 74.0027 42.4825C74.1049 41.9141 74.0634 41.3287 73.8821 40.781C73.6779 40.2309 73.3829 39.72 73.0098 39.2701C72.3643 38.4585 71.4957 37.8179 70.633 37.263C69.3497 36.4522 67.9867 35.7788 66.566 35.2534C66.4575 35.2196 66.3466 35.1943 66.2342 35.1776C65.849 35.0961 65.4677 35.004 65.0905 34.9014C64.3475 34.6959 63.6188 34.4407 62.9092 34.1374L63.1722 34.2498C61.7649 33.6414 60.4399 32.8535 59.2294 31.9053L59.4526 32.0789C58.3972 31.2496 57.4293 30.312 56.5643 29.2809C56.3616 29.0364 56.165 28.7919 55.9743 28.5475L56.1457 28.7736C55.5716 28.034 55.0618 27.2455 54.6219 26.4169C54.5965 26.368 54.5712 26.3191 54.5471 26.269C54.4017 26.0183 54.166 25.8347 53.8895 25.7568C53.6044 25.6805 53.301 25.7209 53.045 25.8692C52.7982 26.0166 52.6171 26.2548 52.5395 26.5342C52.4748 26.8237 52.5141 27.1271 52.6505 27.3899L52.6469 27.3948Z" fill="#0B5145"/>
<path d="M83.1951 6.47137C84.1819 6.47137 84.9819 5.47041 84.9819 4.23566C84.9819 3.0009 84.1819 1.99994 83.1951 1.99994C82.2082 1.99994 81.4083 3.0009 81.4083 4.23566C81.4083 5.47041 82.2082 6.47137 83.1951 6.47137Z" fill="#0B5145" stroke="#0B5145" stroke-width="3.04" stroke-miterlimit="10"/>
<path d="M103.876 22.4393C105.005 22.4393 105.919 21.2955 105.919 19.8845C105.919 18.4736 105.005 17.3298 103.876 17.3298C102.748 17.3298 101.834 18.4736 101.834 19.8845C101.834 21.2955 102.748 22.4393 103.876 22.4393Z" fill="#0B5145" stroke="#0B5145" stroke-width="3.04" stroke-miterlimit="10"/>
<path d="M72.4705 9.02618C73.4573 9.02618 74.2573 8.02522 74.2573 6.79047C74.2573 5.55571 73.4573 4.55475 72.4705 4.55475C71.4837 4.55475 70.6837 5.55571 70.6837 6.79047C70.6837 8.02522 71.4837 9.02618 72.4705 9.02618Z" fill="#0B5145" stroke="#0B5145" stroke-width="3.04" stroke-miterlimit="10"/>
<path d="M55.3639 23.7166C56.2101 23.7166 56.8961 22.8585 56.8961 21.7999C56.8961 20.7414 56.2101 19.8832 55.3639 19.8832C54.5177 19.8832 53.8317 20.7414 53.8317 21.7999C53.8317 22.8585 54.5177 23.7166 55.3639 23.7166Z" fill="#0B5145" stroke="#0B5145" stroke-width="3.04" stroke-miterlimit="10"/>
<path d="M93.6635 14.1356C94.7916 14.1356 95.7061 12.9918 95.7061 11.5809C95.7061 10.1699 94.7916 9.02612 93.6635 9.02612C92.5354 9.02612 91.6209 10.1699 91.6209 11.5809C91.6209 12.9918 92.5354 14.1356 93.6635 14.1356Z" fill="#0B5145" stroke="#0B5145" stroke-width="3.04" stroke-miterlimit="10"/>
<path d="M6.66147 91.1237C4.69974 89.8728 3.09908 88.0058 1.85947 85.5228C0.619868 83.0398 6.47048e-05 80.0388 6.47048e-05 76.52C-0.00709341 73.5789 0.579745 70.6727 1.71824 68.0111C2.82629 65.3613 4.57747 63.0985 6.77935 61.4714C9.00352 59.8106 11.6555 58.9798 14.7352 58.979C16.3974 58.979 17.7938 59.2235 18.9245 59.7124C20.0551 60.2014 20.9025 60.8285 21.4667 61.5937C22.0316 62.3564 22.3141 63.1677 22.3141 64.0274C22.3141 65.1226 21.8592 66.0415 20.9496 66.7839C20.0399 67.5262 18.7372 67.8978 17.0417 67.8987C17.4191 66.8816 17.6074 65.689 17.6066 64.3208C17.6066 63.0707 17.3557 62.015 16.8537 61.1536C16.3518 60.2922 15.6301 59.862 14.6885 59.8628C13.2762 59.8628 11.9813 60.5864 10.804 62.0337C9.62666 63.481 8.70882 65.3675 8.05046 67.6933C7.39238 70.0191 7.06014 72.4415 7.06515 74.8772C7.06515 77.3415 7.37913 79.6192 8.00709 81.7102C8.63505 83.8013 9.61554 85.4922 10.9486 86.7831C12.2831 88.0739 13.9386 88.7193 15.9151 88.7193C17.1843 88.7153 18.4371 88.4049 19.585 87.8099C20.7721 87.2086 21.8308 86.3394 22.6922 85.2588C21.9693 87.7614 20.6982 89.6764 18.8789 91.0039C17.0833 92.3254 14.9666 93.0203 12.8057 92.9976C10.6713 92.9992 8.62319 92.3746 6.66147 91.1237Z" fill="#0B5145"/>
<path d="M26.9035 89.218C27.0745 87.4722 27.161 85.7177 27.1626 83.9618V68.0111C27.1608 66.2572 27.0743 64.5047 26.9035 62.761C26.7315 60.982 26.5039 59.8187 26.2207 59.2711H37.0013C39.4175 59.2711 41.4889 59.6916 43.2156 60.5326C44.9423 61.3736 46.2372 62.4896 47.1001 63.8807C47.9416 65.1943 48.3937 66.7614 48.3946 68.368C48.3946 70.5577 47.6336 72.5616 46.1115 74.3796C44.5894 76.1977 42.4157 77.4568 39.5902 78.1568C40.7201 78.2741 41.6383 78.5675 42.3449 79.0369C43.0514 79.5063 43.6241 80.2882 44.063 81.3826L45.9458 85.7831C47.4827 89.3419 48.7694 91.6489 49.8058 92.7042H38.9819C39.0194 92.3341 39.035 91.9617 39.0286 91.5894C39.0286 89.6336 38.4166 87.2679 37.1926 84.4923C37.0665 84.2193 36.7922 83.5939 36.3696 82.616C36.0107 81.7713 35.6098 80.9491 35.1686 80.1529C34.7927 79.4879 34.4791 79.0968 34.2277 78.9794V83.9643C34.229 85.7201 34.3151 87.4746 34.4857 89.2204C34.6585 91.0002 34.8861 92.1635 35.1686 92.7103H26.2207C26.5032 92.1611 26.7308 90.997 26.9035 89.218ZM39.5669 74.7011C40.7434 72.9042 41.3321 70.8323 41.3329 68.4854C41.3407 67.081 41.0752 65.6911 40.5544 64.4088C40.066 63.1782 39.2855 62.1146 38.2946 61.3296C37.3012 60.5456 36.1045 60.1341 34.8816 60.1561H34.2233V78.0443C36.6083 77.6157 38.3895 76.5013 39.5669 74.7011Z" fill="#0B5145"/>
<path d="M53.7126 84.848V67.1359C53.7126 62.8356 53.3986 60.2156 52.7707 59.276H73.5311V66.9012C73.4681 66.7838 73.1386 66.129 72.5425 64.9368C71.9464 63.7446 70.8165 62.6506 69.1528 61.6547C67.4891 60.6573 65.4963 60.1586 63.1743 60.1586H60.7788V75.4052H61.7664C63.9631 75.4052 65.6657 75.0536 66.8742 74.3503C68.0826 73.647 68.9223 72.8647 69.393 72.0033C69.2568 73.2685 69.194 74.542 69.2051 75.8159C69.1931 77.1094 69.2559 78.4024 69.393 79.6872C68.923 78.8282 68.0834 78.0463 66.8742 77.3414C65.665 76.6365 63.9624 76.2845 61.7664 76.2853H60.7788V91.8278H63.1787C65.5007 91.8278 67.3839 91.3975 68.8281 90.5369C70.2723 89.6764 71.1991 88.9532 71.6083 88.3672C72.0153 87.7805 72.6585 86.6856 73.5378 85.0827V92.703H52.7718C53.3983 91.7675 53.7119 89.1491 53.7126 84.848Z" fill="#0B5145"/>
<path d="M82.1466 81.7395L88.3132 67.4879C89.4112 64.9462 89.9605 62.5014 89.9613 60.1537H88.6423C85.8488 60.1537 83.8718 60.6019 82.7116 61.4983C81.5513 62.3947 80.7821 63.7629 80.404 65.603L78.2388 59.276H101.259C99.6887 60.8406 97.6499 64.4968 95.1425 70.2443L88.7369 85.0827C88.1719 86.4143 87.7864 87.6167 87.5803 88.6899C87.3803 89.7215 87.2778 90.773 87.2745 91.8278H91.0867C93.8803 91.8278 95.8576 91.3796 97.0186 90.4832C98.1796 89.5867 98.9484 88.2185 99.325 86.3784L101.495 92.703H75.979C77.6738 90.9851 79.7297 87.3307 82.1466 81.7395Z" fill="#0B5145"/>
<path d="M108.627 91.1237C106.665 89.8728 105.064 88.0058 103.825 85.5227C102.585 83.0397 101.965 80.0388 101.965 76.52C101.958 73.5789 102.545 70.6727 103.683 68.011C104.791 65.3612 106.543 63.0984 108.744 61.4714C110.969 59.8106 113.621 58.9798 116.7 58.9789C118.363 58.9789 119.76 59.2234 120.89 59.7124C122.019 60.2013 122.867 60.8272 123.432 61.5899C123.997 62.3527 124.279 63.1639 124.279 64.0237C124.279 65.1189 123.824 66.0377 122.914 66.7801C122.003 67.5225 120.701 67.8941 119.007 67.8949C119.383 66.8779 119.571 65.6853 119.572 64.317C119.572 63.067 119.321 62.0112 118.819 61.1499C118.317 60.2885 117.595 59.8582 116.652 59.8591C115.24 59.8591 113.946 60.5827 112.769 62.03C111.592 63.4773 110.675 65.3638 110.016 67.6896C109.356 70.0152 109.023 72.4376 109.027 74.8734C109.027 77.3377 109.341 79.6154 109.968 81.7065C110.595 83.7976 111.576 85.4885 112.91 86.7793C114.245 88.0702 115.9 88.7156 117.877 88.7156C119.146 88.7115 120.399 88.401 121.547 87.8061C122.734 87.2048 123.793 86.3356 124.654 85.255C123.931 87.7576 122.66 89.6727 120.841 91.0002C119.045 92.3217 116.928 93.0165 114.767 92.9939C112.635 92.998 110.588 92.3745 108.627 91.1237Z" fill="#0B5145"/>
<path d="M132.564 91.0063C130.618 89.678 129.088 87.7426 127.974 85.2C126.861 82.6575 126.305 79.5881 126.306 75.9919C126.306 72.3949 126.862 69.3255 127.974 66.7838C129.087 64.2421 130.616 62.3066 132.564 60.9775C134.51 59.6484 136.707 58.9838 139.155 58.9838C141.603 58.9838 143.799 59.6484 145.742 60.9775C147.687 62.3075 149.217 64.2429 150.332 66.7838C151.447 69.3247 152.003 72.3941 152 75.9919C152 79.5897 151.444 82.6591 150.332 85.2C149.22 87.7409 147.69 89.6763 145.742 91.0063C143.796 92.3362 141.599 93.0008 139.152 93C136.705 92.9992 134.509 92.3346 132.564 91.0063ZM143.65 87.7511C144.513 84.8394 144.945 80.9197 144.945 75.9919C144.945 71.3004 144.459 67.4394 143.486 64.4087C142.513 61.378 141.07 59.8627 139.155 59.8627C137.24 59.8627 135.795 61.378 134.818 64.4087C133.842 67.4394 133.355 71.3004 133.359 75.9919C133.359 80.9181 133.791 84.8378 134.654 87.7511C135.517 90.6644 137.015 92.1211 139.15 92.1211C141.287 92.1211 142.787 90.6644 143.65 87.7511Z" fill="#0B5145"/>
</svg>
