<svg width="24" height="24" viewBox="0 0 24 24" fill="none" xmlns="http://www.w3.org/2000/svg">
<path opacity="0.3" fill-rule="evenodd" clip-rule="evenodd" d="M9.96499 2.80897C9.76584 2.66323 9.53399 2.56851 9.28976 2.53312C9.04552 2.49773 8.79633 2.52275 8.56399 2.60597C7.47769 3.00414 6.46872 3.5878 5.58199 4.33097C5.39414 4.49046 5.24818 4.6935 5.15685 4.92236C5.06551 5.15123 5.03157 5.39897 5.05799 5.64397C5.13299 6.39697 4.99999 7.12397 4.63799 7.74997C4.27699 8.37697 3.71299 8.85597 3.02299 9.16697C2.56499 9.36997 2.23699 9.78697 2.14799 10.28C1.94929 11.418 1.94929 12.5819 2.14799 13.72C2.24099 14.257 2.60799 14.646 3.02299 14.834C3.71299 15.144 4.27699 15.624 4.63899 16.25C4.99999 16.877 5.13299 17.603 5.05799 18.356C5.01299 18.808 5.16499 19.32 5.58199 19.669C6.46872 20.4121 7.47769 20.9958 8.56399 21.394C9.03499 21.563 9.55999 21.487 9.96399 21.191C10.579 20.749 11.276 20.5 12 20.5C12.724 20.5 13.42 20.749 14.035 21.191C14.405 21.457 14.925 21.581 15.436 21.394C16.5223 20.9958 17.5313 20.4121 18.418 19.669C18.835 19.32 18.988 18.809 18.942 18.356C18.867 17.603 18.999 16.876 19.362 16.25C19.723 15.623 20.287 15.145 20.977 14.834C21.391 14.646 21.759 14.257 21.852 13.72C22.0487 12.5817 22.0487 11.4182 21.852 10.28C21.8082 10.0371 21.7056 9.8086 21.553 9.61457C21.4005 9.42054 21.2027 9.26685 20.977 9.16697C20.287 8.85597 19.723 8.37697 19.361 7.74997C18.999 7.12397 18.867 6.39697 18.942 5.64397C18.9684 5.39897 18.9345 5.15123 18.8431 4.92236C18.7518 4.6935 18.6058 4.49046 18.418 4.33097C17.5313 3.5878 16.5223 3.00414 15.436 2.60597C15.2038 2.52292 14.9548 2.498 14.7108 2.53339C14.4667 2.56877 14.235 2.66339 14.036 2.80897C13.42 3.24997 12.723 3.49997 12 3.49997C11.277 3.49997 10.58 3.25097 9.96499 2.80897Z" fill="#0B5145"/>
<path fill-rule="evenodd" clip-rule="evenodd" d="M7.69232 11.8462C7.69232 8.65386 11.1539 6.65746 13.9231 8.2543C14.5545 8.61833 15.0789 9.1419 15.4435 9.7724C15.8081 10.4029 16 11.1181 16 11.8462C16 15.0385 12.5385 17.0349 9.76924 15.438C9.1378 15.074 8.61343 14.5504 8.24886 13.9199C7.88428 13.2894 7.69234 12.5742 7.69232 11.8462Z" fill="#0B5145"/>
</svg>
